<svg xmlns="http://www.w3.org/2000/svg" viewBox="0 0 800 300" width="100%" height="100%">
    <rect width="100%" height="100%" fill="#0B1020"/>
    
    <g id="wm2_wordmark_v2_group">
        
        <path d="M 182.0,95 
                 L 151.4,180.0 
                 L 164.59625,180.0 
                 L 182.0,112.0 
                 L 199.40375,180.0 
                 L 212.6,180.0 Z
                 M 164.575,147.53 
                 L 199.425,147.53 
                 L 199.425,159.005 
                 L 164.575,159.005 Z"
              fill="#FFFFFF" />
    
        
        <path d="M 309.5,113.7 
                 C 301.0,98.4 265.29999999999995,98.4 265.29999999999995,122.2 
                 C 265.29999999999995,139.2 312.04999999999995,135.8 312.04999999999995,157.05 
                 C 312.04999999999995,178.3 268.7,178.3 258.5,161.3 
                 L 270.54875,157.9 
                 C 267.0,168.1 300.15,168.1 300.15,157.05 
                 C 300.15,140.9 253.825,142.6 253.825,122.2 
                 C 253.825,100.95 295.9,100.95 309.5,113.7 Z"
              fill="#FFFFFF" />
    
        
        <path d="M 352.84999999999997,95 
                 L 414.04999999999995,95 
                 L 414.04999999999995,106.475 
                 L 389.1875,106.475 
                 L 389.1875,180.0 
                 L 377.7125,180.0 
                 L 377.7125,106.475 
                 L 352.84999999999997,106.475 Z"
              fill="#FFFFFF" />
    
        
        <path d="M 454.84999999999997,95 
                 L 493.95,95 
                 C 516.9,95 516.9,137.5 493.95,137.5 
                 L 466.325,137.5 
                 L 466.325,180.0 
                 L 454.84999999999997,180.0 Z
                 M 466.325,106.475 
                 L 492.24999999999994,106.475 
                 C 504.99999999999994,106.475 504.99999999999994,126.025 492.24999999999994,126.025 
                 L 466.325,126.025 Z
                 M 482.9,135.8 
                 L 514.3499999999999,180.0 
                 L 500.0062499999999,180.0 
                 L 474.4,135.8 Z"
              fill="#FFFFFF" />
    
        
        <path d="M 591.6999999999999,95 
                 L 561.0999999999999,180.0 
                 L 574.2962499999999,180.0 
                 L 591.6999999999999,112.0 
                 L 609.10375,180.0 
                 L 622.3,180.0 Z
                 M 574.275,147.53 
                 L 609.1249999999999,147.53 
                 L 609.1249999999999,159.005 
                 L 574.275,159.005 Z"
              fill="#FFFFFF" />
    
        
            <text x="367.29999999999995" y="207.2" font-family="system-ui, -apple-system, 'Geist', 'Satoshi', sans-serif" 
                  font-size="15.725px" font-weight="600" letter-spacing="37.4px" fill="#A1A7BB" text-anchor="middle">
                AI OPERATING SYSTEM
            </text>
        
    </g>
    
</svg>