<svg xmlns="http://www.w3.org/2000/svg" viewBox="0 0 1200 450" width="100%" height="100%">
    
    <defs>
        <!-- Flagship Starlight Radiant Gradient -->
        <linearGradient id="pri_l2_starGradientV2" x1="0%" y1="0%" x2="0%" y2="100%">
            <stop offset="0%" stop-color="#FFFFFF"/>
            <stop offset="30%" stop-color="#FFC857"/>
            <stop offset="65%" stop-color="#6D5DF6"/>
            <stop offset="100%" stop-color="#4F46E5"/>
        </linearGradient>

        <!-- Star Horizontal Glow Gradient -->
        <linearGradient id="pri_l2_starHorizGradientV2" x1="0%" y1="0%" x2="100%" y2="0%">
            <stop offset="0%" stop-color="#6D5DF6" stop-opacity="0.15"/>
            <stop offset="50%" stop-color="#FFFFFF"/>
            <stop offset="100%" stop-color="#6D5DF6" stop-opacity="0.15"/>
        </linearGradient>

        <!-- Star Core Radial Aura -->
        <radialGradient id="pri_l2_coreGlowV2" cx="50%" cy="50%" r="50%">
            <stop offset="0%" stop-color="#FFFFFF" stop-opacity="1"/>
            <stop offset="25%" stop-color="#FFC857" stop-opacity="0.95"/>
            <stop offset="60%" stop-color="#6D5DF6" stop-opacity="0.5"/>
            <stop offset="100%" stop-color="#6D5DF6" stop-opacity="0"/>
        </radialGradient>

        <!-- Horizon Arc Gradient Dark -->
        <linearGradient id="pri_l2_horizonGradientV2" x1="0%" y1="0%" x2="100%" y2="0%">
            <stop offset="0%" stop-color="#6D5DF6" stop-opacity="0.1"/>
            <stop offset="20%" stop-color="#6D5DF6" stop-opacity="0.85"/>
            <stop offset="50%" stop-color="#FFC857" stop-opacity="1"/>
            <stop offset="80%" stop-color="#6D5DF6" stop-opacity="0.85"/>
            <stop offset="100%" stop-color="#6D5DF6" stop-opacity="0.1"/>
        </linearGradient>

        <!-- Horizon Arc Gradient Light -->
        <linearGradient id="pri_l2_horizonLightGradientV2" x1="0%" y1="0%" x2="100%" y2="0%">
            <stop offset="0%" stop-color="#6D5DF6" stop-opacity="0.2"/>
            <stop offset="25%" stop-color="#6D5DF6" stop-opacity="0.95"/>
            <stop offset="50%" stop-color="#F59E0B" stop-opacity="1"/>
            <stop offset="75%" stop-color="#6D5DF6" stop-opacity="0.95"/>
            <stop offset="100%" stop-color="#6D5DF6" stop-opacity="0.2"/>
        </linearGradient>

        <!-- App Icon Premium Gradient -->
        <linearGradient id="pri_l2_appIconBgV2" x1="0%" y1="0%" x2="100%" y2="100%">
            <stop offset="0%" stop-color="#1E1B4B"/>
            <stop offset="40%" stop-color="#0B1020"/>
            <stop offset="100%" stop-color="#030712"/>
        </linearGradient>
    </defs>
    
    <rect width="100%" height="100%" fill="#F8FAFC"/>
    
    <g id="pri_l2_variant_c_flagship_mark">
        <circle cx="230" cy="220" r="66.0" fill="url(#pri_l2_coreGlowV2)" opacity="0.95" />
        <path d="M 67.19999999999999,327.36 Q 230,260.48 392.8,327.36 Q 230,275.44 67.19999999999999,327.36 Z" 
              fill="url(#pri_l2_horizonLightGradientV2)" />
        <path d="M 175.44,165.44 Q 230,220 223.4,213.4 Q 230,220 175.44,165.44 Z
                 M 284.56,165.44 Q 230,220 236.6,213.4 Q 230,220 284.56,165.44 Z
                 M 175.44,274.56 Q 230,220 223.4,226.6 Q 230,220 175.44,274.56 Z
                 M 284.56,274.56 Q 230,220 236.6,226.6 Q 230,220 284.56,274.56 Z"
              fill="url(#pri_l2_starGradientV2)" opacity="0.75" />
        <path d="M 117.36,220 Q 230,208.12 230,220 Q 230,231.88 117.36,220 Z
                 M 342.64,220 Q 230,208.12 230,220 Q 230,231.88 342.64,220 Z"
              fill="url(#pri_l2_starGradientV2)" />
        <path d="M 230,89.75999999999999 Q 215.48,220 230,220 Q 244.52,220 230,89.75999999999999 Z
                 M 230,336.15999999999997 Q 215.48,220 230,220 Q 244.52,220 230,336.15999999999997 Z"
              fill="url(#pri_l2_starGradientV2)" />
        <polygon points="230,208.56 241.44,220 230,231.44 218.56,220" 
                 fill="#090D16" opacity="0.98"/>
    </g>
    
    
    <g id="pri_l2_wordmark_v2_group">
        
        <path d="M 520.0,175 
                 L 493.0,250.0 
                 L 504.64375,250.0 
                 L 520.0,190.0 
                 L 535.35625,250.0 
                 L 547.0,250.0 Z
                 M 504.625,221.35 
                 L 535.375,221.35 
                 L 535.375,231.475 
                 L 504.625,231.475 Z"
              fill="#090D16" />
    
        
        <path d="M 632.5,191.5 
                 C 625.0,178.0 593.5,178.0 593.5,199.0 
                 C 593.5,214.0 634.75,211.0 634.75,229.75 
                 C 634.75,248.5 596.5,248.5 587.5,233.5 
                 L 598.13125,230.5 
                 C 595.0,239.5 624.25,239.5 624.25,229.75 
                 C 624.25,215.5 583.375,217.0 583.375,199.0 
                 C 583.375,180.25 620.5,180.25 632.5,191.5 Z"
              fill="#090D16" />
    
        
        <path d="M 670.75,175 
                 L 724.75,175 
                 L 724.75,185.125 
                 L 702.8125,185.125 
                 L 702.8125,250.0 
                 L 692.6875,250.0 
                 L 692.6875,185.125 
                 L 670.75,185.125 Z"
              fill="#090D16" />
    
        
        <path d="M 760.75,175 
                 L 795.25,175 
                 C 815.5,175 815.5,212.5 795.25,212.5 
                 L 770.875,212.5 
                 L 770.875,250.0 
                 L 760.75,250.0 Z
                 M 770.875,185.125 
                 L 793.75,185.125 
                 C 805.0,185.125 805.0,202.375 793.75,202.375 
                 L 770.875,202.375 Z
                 M 785.5,211.0 
                 L 813.25,250.0 
                 L 800.59375,250.0 
                 L 778.0,211.0 Z"
              fill="#090D16" />
    
        
        <path d="M 881.5,175 
                 L 854.5,250.0 
                 L 866.14375,250.0 
                 L 881.5,190.0 
                 L 896.85625,250.0 
                 L 908.5,250.0 Z
                 M 866.125,221.35 
                 L 896.875,221.35 
                 L 896.875,231.475 
                 L 866.125,231.475 Z"
              fill="#090D16" />
    
        
            <text x="683.5" y="274.0" font-family="system-ui, -apple-system, 'Geist', 'Satoshi', sans-serif" 
                  font-size="13.875px" font-weight="600" letter-spacing="33.0px" fill="#475569" text-anchor="middle">
                AI OPERATING SYSTEM
            </text>
        
    </g>
    
</svg>