<svg xmlns="http://www.w3.org/2000/svg" viewBox="0 0 2000 1200" width="2000" height="1200">
    
    <defs>
        <!-- Flagship Starlight Radiant Gradient -->
        <linearGradient id="mot_starGradientV2" x1="0%" y1="0%" x2="0%" y2="100%">
            <stop offset="0%" stop-color="#FFFFFF"/>
            <stop offset="30%" stop-color="#FFC857"/>
            <stop offset="65%" stop-color="#6D5DF6"/>
            <stop offset="100%" stop-color="#4F46E5"/>
        </linearGradient>

        <!-- Star Horizontal Glow Gradient -->
        <linearGradient id="mot_starHorizGradientV2" x1="0%" y1="0%" x2="100%" y2="0%">
            <stop offset="0%" stop-color="#6D5DF6" stop-opacity="0.15"/>
            <stop offset="50%" stop-color="#FFFFFF"/>
            <stop offset="100%" stop-color="#6D5DF6" stop-opacity="0.15"/>
        </linearGradient>

        <!-- Star Core Radial Aura -->
        <radialGradient id="mot_coreGlowV2" cx="50%" cy="50%" r="50%">
            <stop offset="0%" stop-color="#FFFFFF" stop-opacity="1"/>
            <stop offset="25%" stop-color="#FFC857" stop-opacity="0.95"/>
            <stop offset="60%" stop-color="#6D5DF6" stop-opacity="0.5"/>
            <stop offset="100%" stop-color="#6D5DF6" stop-opacity="0"/>
        </radialGradient>

        <!-- Horizon Arc Gradient Dark -->
        <linearGradient id="mot_horizonGradientV2" x1="0%" y1="0%" x2="100%" y2="0%">
            <stop offset="0%" stop-color="#6D5DF6" stop-opacity="0.1"/>
            <stop offset="20%" stop-color="#6D5DF6" stop-opacity="0.85"/>
            <stop offset="50%" stop-color="#FFC857" stop-opacity="1"/>
            <stop offset="80%" stop-color="#6D5DF6" stop-opacity="0.85"/>
            <stop offset="100%" stop-color="#6D5DF6" stop-opacity="0.1"/>
        </linearGradient>

        <!-- Horizon Arc Gradient Light -->
        <linearGradient id="mot_horizonLightGradientV2" x1="0%" y1="0%" x2="100%" y2="0%">
            <stop offset="0%" stop-color="#6D5DF6" stop-opacity="0.2"/>
            <stop offset="25%" stop-color="#6D5DF6" stop-opacity="0.95"/>
            <stop offset="50%" stop-color="#F59E0B" stop-opacity="1"/>
            <stop offset="75%" stop-color="#6D5DF6" stop-opacity="0.95"/>
            <stop offset="100%" stop-color="#6D5DF6" stop-opacity="0.2"/>
        </linearGradient>

        <!-- App Icon Premium Gradient -->
        <linearGradient id="mot_appIconBgV2" x1="0%" y1="0%" x2="100%" y2="100%">
            <stop offset="0%" stop-color="#1E1B4B"/>
            <stop offset="40%" stop-color="#0B1020"/>
            <stop offset="100%" stop-color="#030712"/>
        </linearGradient>
    </defs>
    
    <rect width="2000" height="1200" fill="#070A14"/>
    
    <!-- Board Header -->
    <rect width="2000" height="160" fill="#0B1020"/>
    <line x1="0" y1="160" x2="2000" y2="160" stroke="#1E293B" stroke-width="2"/>
    <text x="80" y="80" font-family="system-ui, sans-serif" font-size="38px" font-weight="800" fill="#FFFFFF" letter-spacing="3px">ASTRA MOTION IDENTITY STORYBOARD</text>
    <text x="80" y="125" font-family="system-ui, sans-serif" font-size="20px" font-weight="500" fill="#6D5DF6">6-Frame Dynamic Ignition &amp; Reveal Animation Concept</text>

    <!-- Row 1: Frames 1, 2, 3 -->
    <!-- Frame 1 -->
    <g transform="translate(80, 220)">
        <rect width="570" height="420" rx="16" fill="#0B1020" stroke="#1E293B" stroke-width="2"/>
        <text x="30" y="45" font-family="system-ui, sans-serif" font-size="16px" font-weight="700" fill="#FFC857">FRAME 01 — IGNITION (0.0s)</text>
        <line x1="120" y1="230" x2="450" y2="230" stroke="#6D5DF6" stroke-width="3" opacity="0.4"/>
        <circle cx="285" cy="230" r="4" fill="#FFFFFF"/>
        <text x="30" y="380" font-family="system-ui, sans-serif" font-size="14px" fill="#A1A7BB">Quiescent horizon line with central quantum starlight spark.</text>
    </g>

    <!-- Frame 2 -->
    <g transform="translate(715, 220)">
        <rect width="570" height="420" rx="16" fill="#0B1020" stroke="#1E293B" stroke-width="2"/>
        <text x="30" y="45" font-family="system-ui, sans-serif" font-size="16px" font-weight="700" fill="#FFC857">FRAME 02 — CURVATURE (0.4s)</text>
        <path d="M 125,260 Q 285,190 445,260 Q 285,202 125,260 Z" fill="url(#mot_horizonGradientV2)" />
        <circle cx="285" cy="196" r="10" fill="#FFFFFF" opacity="0.8"/>
        <text x="30" y="380" font-family="system-ui, sans-serif" font-size="14px" fill="#A1A7BB">Horizon arc curves upward as starlight point elevates.</text>
    </g>

    <!-- Frame 3 -->
    <g transform="translate(1350, 220)">
        <rect width="570" height="420" rx="16" fill="#0B1020" stroke="#1E293B" stroke-width="2"/>
        <text x="30" y="45" font-family="system-ui, sans-serif" font-size="16px" font-weight="700" fill="#FFC857">FRAME 03 — RAY EMERGENCE (0.8s)</text>
        <path d="M 125,260 Q 285,190 445,260 Q 285,202 125,260 Z" fill="url(#mot_horizonGradientV2)" />
        <line x1="285" y1="110" x2="285" y2="250" stroke="#FFFFFF" stroke-width="6"/>
        <line x1="215" y1="180" x2="355" y2="180" stroke="#FFFFFF" stroke-width="5"/>
        <text x="30" y="380" font-family="system-ui, sans-serif" font-size="14px" fill="#A1A7BB">Vertical &amp; horizontal flares expand outward along grid axes.</text>
    </g>

    <!-- Row 2: Frames 4, 5, 6 -->
    <!-- Frame 4 -->
    <g transform="translate(80, 680)">
        <rect width="570" height="420" rx="16" fill="#0B1020" stroke="#1E293B" stroke-width="2"/>
        <text x="30" y="45" font-family="system-ui, sans-serif" font-size="16px" font-weight="700" fill="#FFC857">FRAME 04 — FLARE RADIANCE (1.2s)</text>
        
    <g id="mot_f4_variant_c_flagship_mark">
        <circle cx="285" cy="200" r="63.75" fill="url(#mot_f4_coreGlowV2)" opacity="0.95" />
        <path d="M 127.75,303.7 Q 285,239.1 442.25,303.7 Q 285,253.55 127.75,303.7 Z" 
              fill="url(#mot_f4_horizonGradientV2)" />
        <path d="M 232.3,147.3 Q 285,200 278.625,193.625 Q 285,200 232.3,147.3 Z
                 M 337.7,147.3 Q 285,200 291.375,193.625 Q 285,200 337.7,147.3 Z
                 M 232.3,252.7 Q 285,200 278.625,206.375 Q 285,200 232.3,252.7 Z
                 M 337.7,252.7 Q 285,200 291.375,206.375 Q 285,200 337.7,252.7 Z"
              fill="url(#mot_f4_starGradientV2)" opacity="0.75" />
        <path d="M 176.2,200 Q 285,188.525 285,200 Q 285,211.475 176.2,200 Z
                 M 393.8,200 Q 285,188.525 285,200 Q 285,211.475 393.8,200 Z"
              fill="url(#mot_f4_starGradientV2)" />
        <path d="M 285,74.2 Q 270.975,200 285,200 Q 299.025,200 285,74.2 Z
                 M 285,312.2 Q 270.975,200 285,200 Q 299.025,200 285,312.2 Z"
              fill="url(#mot_f4_starGradientV2)" />
        <polygon points="285,188.95 296.05,200 285,211.05 273.95,200" 
                 fill="#FFFFFF" opacity="0.98"/>
    </g>
    
        <text x="30" y="380" font-family="system-ui, sans-serif" font-size="14px" fill="#A1A7BB">Diagonal rays &amp; radiant core glow lock into golden geometry.</text>
    </g>

    <!-- Frame 5 -->
    <g transform="translate(715, 680)">
        <rect width="570" height="420" rx="16" fill="#0B1020" stroke="#1E293B" stroke-width="2"/>
        <text x="30" y="45" font-family="system-ui, sans-serif" font-size="16px" font-weight="700" fill="#FFC857">FRAME 05 — WORDMARK REVEAL (1.6s)</text>
        
    <g id="mot_f5_variant_c_flagship_mark">
        <circle cx="285" cy="180" r="56.25" fill="url(#mot_f5_coreGlowV2)" opacity="0.95" />
        <path d="M 146.25,271.5 Q 285,214.5 423.75,271.5 Q 285,227.25 146.25,271.5 Z" 
              fill="url(#mot_f5_horizonGradientV2)" />
        <path d="M 238.5,133.5 Q 285,180 279.375,174.375 Q 285,180 238.5,133.5 Z
                 M 331.5,133.5 Q 285,180 290.625,174.375 Q 285,180 331.5,133.5 Z
                 M 238.5,226.5 Q 285,180 279.375,185.625 Q 285,180 238.5,226.5 Z
                 M 331.5,226.5 Q 285,180 290.625,185.625 Q 285,180 331.5,226.5 Z"
              fill="url(#mot_f5_starGradientV2)" opacity="0.75" />
        <path d="M 189.0,180 Q 285,169.875 285,180 Q 285,190.125 189.0,180 Z
                 M 381.0,180 Q 285,169.875 285,180 Q 285,190.125 381.0,180 Z"
              fill="url(#mot_f5_starGradientV2)" />
        <path d="M 285,69.0 Q 272.625,180 285,180 Q 297.375,180 285,69.0 Z
                 M 285,279.0 Q 272.625,180 285,180 Q 297.375,180 285,279.0 Z"
              fill="url(#mot_f5_starGradientV2)" />
        <polygon points="285,170.25 294.75,180 285,189.75 275.25,180" 
                 fill="#FFFFFF" opacity="0.98"/>
    </g>
    
        <g transform="translate(0, 40)">
            
    <g id="mot_f5_wordmark_v2_group">
        
        <path d="M 111.0,250 
                 L 96.6,290.0 
                 L 102.80999999999999,290.0 
                 L 111.0,258.0 
                 L 119.19000000000001,290.0 
                 L 125.4,290.0 Z
                 M 102.8,274.72 
                 L 119.2,274.72 
                 L 119.2,280.12 
                 L 102.8,280.12 Z"
              fill="#FFFFFF" />
    
        
        <path d="M 171.0,258.8 
                 C 167.0,251.6 150.2,251.6 150.2,262.8 
                 C 150.2,270.8 172.2,269.2 172.2,279.2 
                 C 172.2,289.2 151.79999999999998,289.2 147.0,281.2 
                 L 152.67,279.6 
                 C 151.0,284.4 166.6,284.4 166.6,279.2 
                 C 166.6,271.6 144.79999999999998,272.4 144.79999999999998,262.8 
                 C 144.79999999999998,252.8 164.6,252.8 171.0,258.8 Z"
              fill="#FFFFFF" />
    
        
        <path d="M 191.4,250 
                 L 220.20000000000002,250 
                 L 220.20000000000002,255.4 
                 L 208.5,255.4 
                 L 208.5,290.0 
                 L 203.10000000000002,290.0 
                 L 203.10000000000002,255.4 
                 L 191.4,255.4 Z"
              fill="#FFFFFF" />
    
        
        <path d="M 239.4,250 
                 L 257.8,250 
                 C 268.6,250 268.6,270.0 257.8,270.0 
                 L 244.8,270.0 
                 L 244.8,290.0 
                 L 239.4,290.0 Z
                 M 244.8,255.4 
                 L 257.0,255.4 
                 C 263.0,255.4 263.0,264.6 257.0,264.6 
                 L 244.8,264.6 Z
                 M 252.6,269.2 
                 L 267.4,290.0 
                 L 260.65,290.0 
                 L 248.6,269.2 Z"
              fill="#FFFFFF" />
    
        
        <path d="M 303.8,250 
                 L 289.40000000000003,290.0 
                 L 295.61,290.0 
                 L 303.8,258.0 
                 L 311.99,290.0 
                 L 318.2,290.0 Z
                 M 295.6,274.72 
                 L 312.0,274.72 
                 L 312.0,280.12 
                 L 295.6,280.12 Z"
              fill="#FFFFFF" />
    
        
    </g>
    
        </g>
        <text x="30" y="380" font-family="system-ui, sans-serif" font-size="14px" fill="#A1A7BB">ASTRA proprietary wordmark fades in with tracking expansion.</text>
    </g>

    <!-- Frame 6 -->
    <g transform="translate(1350, 680)">
        <rect width="570" height="420" rx="16" fill="#0B1020" stroke="#6D5DF6" stroke-width="2"/>
        <text x="30" y="45" font-family="system-ui, sans-serif" font-size="16px" font-weight="700" fill="#FFC857">FRAME 06 — FLAGSHIP LOGO (2.0s)</text>
        <g transform="translate(-10, 30)">
            
    <g id="mot_f6_variant_c_flagship_mark">
        <circle cx="180" cy="190" r="54.0" fill="url(#mot_f6_coreGlowV2)" opacity="0.95" />
        <path d="M 46.80000000000001,277.84000000000003 Q 180,223.12 313.2,277.84000000000003 Q 180,235.36 46.80000000000001,277.84000000000003 Z" 
              fill="url(#mot_f6_horizonGradientV2)" />
        <path d="M 135.36,145.36 Q 180,190 174.6,184.6 Q 180,190 135.36,145.36 Z
                 M 224.64,145.36 Q 180,190 185.4,184.6 Q 180,190 224.64,145.36 Z
                 M 135.36,234.64 Q 180,190 174.6,195.4 Q 180,190 135.36,234.64 Z
                 M 224.64,234.64 Q 180,190 185.4,195.4 Q 180,190 224.64,234.64 Z"
              fill="url(#mot_f6_starGradientV2)" opacity="0.75" />
        <path d="M 87.84,190 Q 180,180.28 180,190 Q 180,199.72 87.84,190 Z
                 M 272.15999999999997,190 Q 180,180.28 180,190 Q 180,199.72 272.15999999999997,190 Z"
              fill="url(#mot_f6_starGradientV2)" />
        <path d="M 180,83.44 Q 168.12,190 180,190 Q 191.88,190 180,83.44 Z
                 M 180,285.03999999999996 Q 168.12,190 180,190 Q 191.88,190 180,285.03999999999996 Z"
              fill="url(#mot_f6_starGradientV2)" />
        <polygon points="180,180.64 189.36,190 180,199.36 170.64,190" 
                 fill="#FFFFFF" opacity="0.98"/>
    </g>
    
            
    <g id="mot_f6_wordmark_v2_group">
        
        <path d="M 400.8,155 
                 L 382.08,207.0 
                 L 390.15299999999996,207.0 
                 L 400.8,165.4 
                 L 411.447,207.0 
                 L 419.52,207.0 Z
                 M 390.14,187.136 
                 L 411.46,187.136 
                 L 411.46,194.156 
                 L 390.14,194.156 Z"
              fill="#FFFFFF" />
    
        
        <path d="M 478.8,166.44 
                 C 473.6,157.08 451.76,157.08 451.76,171.64 
                 C 451.76,182.04 480.36,179.96 480.36,192.96 
                 C 480.36,205.96 453.84000000000003,205.96 447.6,195.56 
                 L 454.971,193.48000000000002 
                 C 452.8,199.72 473.08000000000004,199.72 473.08000000000004,192.96 
                 C 473.08000000000004,183.08 444.74,184.12 444.74,171.64 
                 C 444.74,158.64 470.48,158.64 478.8,166.44 Z"
              fill="#FFFFFF" />
    
        
        <path d="M 505.32000000000005,155 
                 L 542.76,155 
                 L 542.76,162.02 
                 L 527.5500000000001,162.02 
                 L 527.5500000000001,207.0 
                 L 520.5300000000001,207.0 
                 L 520.5300000000001,162.02 
                 L 505.32000000000005,162.02 Z"
              fill="#FFFFFF" />
    
        
        <path d="M 567.72,155 
                 L 591.64,155 
                 C 605.6800000000001,155 605.6800000000001,181.0 591.64,181.0 
                 L 574.74,181.0 
                 L 574.74,207.0 
                 L 567.72,207.0 Z
                 M 574.74,162.02 
                 L 590.6,162.02 
                 C 598.4,162.02 598.4,173.98 590.6,173.98 
                 L 574.74,173.98 Z
                 M 584.88,179.96 
                 L 604.12,207.0 
                 L 595.345,207.0 
                 L 579.6800000000001,179.96 Z"
              fill="#FFFFFF" />
    
        
        <path d="M 651.4399999999999,155 
                 L 632.72,207.0 
                 L 640.793,207.0 
                 L 651.4399999999999,165.4 
                 L 662.087,207.0 
                 L 670.16,207.0 Z
                 M 640.78,187.136 
                 L 662.1,187.136 
                 L 662.1,194.156 
                 L 640.78,194.156 Z"
              fill="#FFFFFF" />
    
        
            <text x="514.16" y="223.64" font-family="system-ui, -apple-system, 'Geist', 'Satoshi', sans-serif" 
                  font-size="9.620000000000001px" font-weight="600" letter-spacing="22.88px" fill="#A1A7BB" text-anchor="middle">
                AI OPERATING SYSTEM
            </text>
        
    </g>
    
        </g>
        <text x="30" y="380" font-family="system-ui, sans-serif" font-size="14px" fill="#A1A7BB">Final lockup settles smoothly into enterprise header state.</text>
    </g>
</svg>