<svg xmlns="http://www.w3.org/2000/svg" viewBox="0 0 2000 3200" width="2000" height="3200">
    
    <defs>
        <!-- Flagship Starlight Radiant Gradient -->
        <linearGradient id="bb2_starGradientV2" x1="0%" y1="0%" x2="0%" y2="100%">
            <stop offset="0%" stop-color="#FFFFFF"/>
            <stop offset="30%" stop-color="#FFC857"/>
            <stop offset="65%" stop-color="#6D5DF6"/>
            <stop offset="100%" stop-color="#4F46E5"/>
        </linearGradient>

        <!-- Star Horizontal Glow Gradient -->
        <linearGradient id="bb2_starHorizGradientV2" x1="0%" y1="0%" x2="100%" y2="0%">
            <stop offset="0%" stop-color="#6D5DF6" stop-opacity="0.15"/>
            <stop offset="50%" stop-color="#FFFFFF"/>
            <stop offset="100%" stop-color="#6D5DF6" stop-opacity="0.15"/>
        </linearGradient>

        <!-- Star Core Radial Aura -->
        <radialGradient id="bb2_coreGlowV2" cx="50%" cy="50%" r="50%">
            <stop offset="0%" stop-color="#FFFFFF" stop-opacity="1"/>
            <stop offset="25%" stop-color="#FFC857" stop-opacity="0.95"/>
            <stop offset="60%" stop-color="#6D5DF6" stop-opacity="0.5"/>
            <stop offset="100%" stop-color="#6D5DF6" stop-opacity="0"/>
        </radialGradient>

        <!-- Horizon Arc Gradient Dark -->
        <linearGradient id="bb2_horizonGradientV2" x1="0%" y1="0%" x2="100%" y2="0%">
            <stop offset="0%" stop-color="#6D5DF6" stop-opacity="0.1"/>
            <stop offset="20%" stop-color="#6D5DF6" stop-opacity="0.85"/>
            <stop offset="50%" stop-color="#FFC857" stop-opacity="1"/>
            <stop offset="80%" stop-color="#6D5DF6" stop-opacity="0.85"/>
            <stop offset="100%" stop-color="#6D5DF6" stop-opacity="0.1"/>
        </linearGradient>

        <!-- Horizon Arc Gradient Light -->
        <linearGradient id="bb2_horizonLightGradientV2" x1="0%" y1="0%" x2="100%" y2="0%">
            <stop offset="0%" stop-color="#6D5DF6" stop-opacity="0.2"/>
            <stop offset="25%" stop-color="#6D5DF6" stop-opacity="0.95"/>
            <stop offset="50%" stop-color="#F59E0B" stop-opacity="1"/>
            <stop offset="75%" stop-color="#6D5DF6" stop-opacity="0.95"/>
            <stop offset="100%" stop-color="#6D5DF6" stop-opacity="0.2"/>
        </linearGradient>

        <!-- App Icon Premium Gradient -->
        <linearGradient id="bb2_appIconBgV2" x1="0%" y1="0%" x2="100%" y2="100%">
            <stop offset="0%" stop-color="#1E1B4B"/>
            <stop offset="40%" stop-color="#0B1020"/>
            <stop offset="100%" stop-color="#030712"/>
        </linearGradient>
    </defs>
    
    
    <rect width="2000" height="3200" fill="#070A14"/>
    
    <!-- Top Header -->
    <rect width="2000" height="180" fill="#0B1020"/>
    <line x1="0" y1="180" x2="2000" y2="180" stroke="#1E293B" stroke-width="2"/>
    <text x="80" y="85" font-family="system-ui, sans-serif" font-size="42px" font-weight="800" fill="#FFFFFF" letter-spacing="4px">ASTRA BRAND SYSTEM V2</text>
    <text x="80" y="130" font-family="system-ui, sans-serif" font-size="24px" font-weight="500" fill="#6D5DF6" letter-spacing="1px">Executive Creative Direction &amp; Optical Refinement</text>

    <text x="1920" y="90" font-family="system-ui, sans-serif" font-size="20px" font-weight="400" fill="#A1A7BB" text-anchor="end">Horizon Rise Concept — Definitive Flagship Identity</text>
    <text x="1920" y="125" font-family="system-ui, sans-serif" font-size="20px" font-weight="400" fill="#A1A7BB" text-anchor="end">Engineered for timeless enterprise software platforms.</text>

    <!-- SECTION 1: PRIMARY LOGO LOCKUPS -->
    <text x="80" y="240" font-family="system-ui, sans-serif" font-size="22px" font-weight="700" fill="#FFFFFF" letter-spacing="2px">1. PRIMARY HORIZONTAL LOGO LOCKUP (FLAGSHIP V2)</text>
    <rect x="80" y="260" width="880" height="340" rx="20" fill="#0B1020" stroke="#1E293B" stroke-width="2"/>
    <g transform="translate(30, 40)">
        
    <g id="bb2_p_d_variant_c_flagship_mark">
        <circle cx="220" cy="220" r="56.25" fill="url(#bb2_p_d_coreGlowV2)" opacity="0.95" />
        <path d="M 81.25,311.5 Q 220,254.5 358.75,311.5 Q 220,267.25 81.25,311.5 Z" 
              fill="url(#bb2_p_d_horizonGradientV2)" />
        <path d="M 173.5,173.5 Q 220,220 214.375,214.375 Q 220,220 173.5,173.5 Z
                 M 266.5,173.5 Q 220,220 225.625,214.375 Q 220,220 266.5,173.5 Z
                 M 173.5,266.5 Q 220,220 214.375,225.625 Q 220,220 173.5,266.5 Z
                 M 266.5,266.5 Q 220,220 225.625,225.625 Q 220,220 266.5,266.5 Z"
              fill="url(#bb2_p_d_starGradientV2)" opacity="0.75" />
        <path d="M 124.0,220 Q 220,209.875 220,220 Q 220,230.125 124.0,220 Z
                 M 316.0,220 Q 220,209.875 220,220 Q 220,230.125 316.0,220 Z"
              fill="url(#bb2_p_d_starGradientV2)" />
        <path d="M 220,109.0 Q 207.625,220 220,220 Q 232.375,220 220,109.0 Z
                 M 220,319.0 Q 207.625,220 220,220 Q 232.375,220 220,319.0 Z"
              fill="url(#bb2_p_d_starGradientV2)" />
        <polygon points="220,210.25 229.75,220 220,229.75 210.25,220" 
                 fill="#FFFFFF" opacity="0.98"/>
    </g>
    
        
    <g id="bb2_p_d_wordmark_v2_group">
        
        <path d="M 466.0,182 
                 L 442.6,247.0 
                 L 452.69125,247.0 
                 L 466.0,195.0 
                 L 479.30875,247.0 
                 L 489.4,247.0 Z
                 M 452.675,222.17000000000002 
                 L 479.325,222.17000000000002 
                 L 479.325,230.94500000000002 
                 L 452.675,230.94500000000002 Z"
              fill="#FFFFFF" />
    
        
        <path d="M 563.5,196.3 
                 C 557.0,184.6 529.7,184.6 529.7,202.8 
                 C 529.7,215.8 565.45,213.2 565.45,229.45 
                 C 565.45,245.7 532.3000000000001,245.7 524.5,232.7 
                 L 533.71375,230.1 
                 C 531.0,237.9 556.35,237.9 556.35,229.45 
                 C 556.35,217.1 520.9250000000001,218.4 520.9250000000001,202.8 
                 C 520.9250000000001,186.55 553.1,186.55 563.5,196.3 Z"
              fill="#FFFFFF" />
    
        
        <path d="M 596.65,182 
                 L 643.4499999999999,182 
                 L 643.4499999999999,190.775 
                 L 624.4375,190.775 
                 L 624.4375,247.0 
                 L 615.6624999999999,247.0 
                 L 615.6624999999999,190.775 
                 L 596.65,190.775 Z"
              fill="#FFFFFF" />
    
        
        <path d="M 674.65,182 
                 L 704.55,182 
                 C 722.1,182 722.1,214.5 704.55,214.5 
                 L 683.425,214.5 
                 L 683.425,247.0 
                 L 674.65,247.0 Z
                 M 683.425,190.775 
                 L 703.25,190.775 
                 C 713.0,190.775 713.0,205.725 703.25,205.725 
                 L 683.425,205.725 Z
                 M 696.1,213.2 
                 L 720.15,247.0 
                 L 709.18125,247.0 
                 L 689.6,213.2 Z"
              fill="#FFFFFF" />
    
        
        <path d="M 779.3,182 
                 L 755.9,247.0 
                 L 765.9912499999999,247.0 
                 L 779.3,195.0 
                 L 792.60875,247.0 
                 L 802.6999999999999,247.0 Z
                 M 765.9749999999999,222.17000000000002 
                 L 792.625,222.17000000000002 
                 L 792.625,230.94500000000002 
                 L 765.9749999999999,230.94500000000002 Z"
              fill="#FFFFFF" />
    
        
            <text x="607.7" y="267.8" font-family="system-ui, -apple-system, 'Geist', 'Satoshi', sans-serif" 
                  font-size="12.025px" font-weight="600" letter-spacing="28.6px" fill="#A1A7BB" text-anchor="middle">
                AI OPERATING SYSTEM
            </text>
        
    </g>
    
    </g>
    <text x="520" y="575" font-family="system-ui, sans-serif" font-size="16px" fill="#A1A7BB" text-anchor="middle">Primary Dark Theme (Deep Space Navy)</text>

    <rect x="1040" y="260" width="880" height="340" rx="20" fill="#F8FAFC" stroke="#E2E8F0" stroke-width="2"/>
    <g transform="translate(990, 40)">
        
    <g id="bb2_p_l_variant_c_flagship_mark">
        <circle cx="220" cy="220" r="56.25" fill="url(#bb2_p_l_coreGlowV2)" opacity="0.95" />
        <path d="M 81.25,311.5 Q 220,254.5 358.75,311.5 Q 220,267.25 81.25,311.5 Z" 
              fill="url(#bb2_p_l_horizonLightGradientV2)" />
        <path d="M 173.5,173.5 Q 220,220 214.375,214.375 Q 220,220 173.5,173.5 Z
                 M 266.5,173.5 Q 220,220 225.625,214.375 Q 220,220 266.5,173.5 Z
                 M 173.5,266.5 Q 220,220 214.375,225.625 Q 220,220 173.5,266.5 Z
                 M 266.5,266.5 Q 220,220 225.625,225.625 Q 220,220 266.5,266.5 Z"
              fill="url(#bb2_p_l_starGradientV2)" opacity="0.75" />
        <path d="M 124.0,220 Q 220,209.875 220,220 Q 220,230.125 124.0,220 Z
                 M 316.0,220 Q 220,209.875 220,220 Q 220,230.125 316.0,220 Z"
              fill="url(#bb2_p_l_starGradientV2)" />
        <path d="M 220,109.0 Q 207.625,220 220,220 Q 232.375,220 220,109.0 Z
                 M 220,319.0 Q 207.625,220 220,220 Q 232.375,220 220,319.0 Z"
              fill="url(#bb2_p_l_starGradientV2)" />
        <polygon points="220,210.25 229.75,220 220,229.75 210.25,220" 
                 fill="#090D16" opacity="0.98"/>
    </g>
    
        
    <g id="bb2_p_l_wordmark_v2_group">
        
        <path d="M 466.0,182 
                 L 442.6,247.0 
                 L 452.69125,247.0 
                 L 466.0,195.0 
                 L 479.30875,247.0 
                 L 489.4,247.0 Z
                 M 452.675,222.17000000000002 
                 L 479.325,222.17000000000002 
                 L 479.325,230.94500000000002 
                 L 452.675,230.94500000000002 Z"
              fill="#090D16" />
    
        
        <path d="M 563.5,196.3 
                 C 557.0,184.6 529.7,184.6 529.7,202.8 
                 C 529.7,215.8 565.45,213.2 565.45,229.45 
                 C 565.45,245.7 532.3000000000001,245.7 524.5,232.7 
                 L 533.71375,230.1 
                 C 531.0,237.9 556.35,237.9 556.35,229.45 
                 C 556.35,217.1 520.9250000000001,218.4 520.9250000000001,202.8 
                 C 520.9250000000001,186.55 553.1,186.55 563.5,196.3 Z"
              fill="#090D16" />
    
        
        <path d="M 596.65,182 
                 L 643.4499999999999,182 
                 L 643.4499999999999,190.775 
                 L 624.4375,190.775 
                 L 624.4375,247.0 
                 L 615.6624999999999,247.0 
                 L 615.6624999999999,190.775 
                 L 596.65,190.775 Z"
              fill="#090D16" />
    
        
        <path d="M 674.65,182 
                 L 704.55,182 
                 C 722.1,182 722.1,214.5 704.55,214.5 
                 L 683.425,214.5 
                 L 683.425,247.0 
                 L 674.65,247.0 Z
                 M 683.425,190.775 
                 L 703.25,190.775 
                 C 713.0,190.775 713.0,205.725 703.25,205.725 
                 L 683.425,205.725 Z
                 M 696.1,213.2 
                 L 720.15,247.0 
                 L 709.18125,247.0 
                 L 689.6,213.2 Z"
              fill="#090D16" />
    
        
        <path d="M 779.3,182 
                 L 755.9,247.0 
                 L 765.9912499999999,247.0 
                 L 779.3,195.0 
                 L 792.60875,247.0 
                 L 802.6999999999999,247.0 Z
                 M 765.9749999999999,222.17000000000002 
                 L 792.625,222.17000000000002 
                 L 792.625,230.94500000000002 
                 L 765.9749999999999,230.94500000000002 Z"
              fill="#090D16" />
    
        
            <text x="607.7" y="267.8" font-family="system-ui, -apple-system, 'Geist', 'Satoshi', sans-serif" 
                  font-size="12.025px" font-weight="600" letter-spacing="28.6px" fill="#475569" text-anchor="middle">
                AI OPERATING SYSTEM
            </text>
        
    </g>
    
    </g>
    <text x="1480" y="575" font-family="system-ui, sans-serif" font-size="16px" fill="#64748B" text-anchor="middle">Primary Light Theme (Starlight White)</text>

    <!-- SECTION 2: STACKED & WORDMARK -->
    <text x="80" y="650" font-family="system-ui, sans-serif" font-size="22px" font-weight="700" fill="#FFFFFF" letter-spacing="2px">2. STACKED LOGO &amp; PROPRIETARY WORDMARK</text>
    <rect x="80" y="670" width="880" height="420" rx="20" fill="#0B1020" stroke="#1E293B" stroke-width="2"/>
    <g transform="translate(120, 680)">
        
    <g id="bb2_s_d_variant_c_flagship_mark">
        <circle cx="400" cy="150" r="60.0" fill="url(#bb2_s_d_coreGlowV2)" opacity="0.95" />
        <path d="M 252.0,247.60000000000002 Q 400,186.8 548.0,247.60000000000002 Q 400,200.4 252.0,247.60000000000002 Z" 
              fill="url(#bb2_s_d_horizonGradientV2)" />
        <path d="M 350.4,100.4 Q 400,150 394.0,144.0 Q 400,150 350.4,100.4 Z
                 M 449.6,100.4 Q 400,150 406.0,144.0 Q 400,150 449.6,100.4 Z
                 M 350.4,199.6 Q 400,150 394.0,156.0 Q 400,150 350.4,199.6 Z
                 M 449.6,199.6 Q 400,150 406.0,156.0 Q 400,150 449.6,199.6 Z"
              fill="url(#bb2_s_d_starGradientV2)" opacity="0.75" />
        <path d="M 297.6,150 Q 400,139.2 400,150 Q 400,160.8 297.6,150 Z
                 M 502.4,150 Q 400,139.2 400,150 Q 400,160.8 502.4,150 Z"
              fill="url(#bb2_s_d_starGradientV2)" />
        <path d="M 400,31.599999999999994 Q 386.8,150 400,150 Q 413.2,150 400,31.599999999999994 Z
                 M 400,255.60000000000002 Q 386.8,150 400,150 Q 413.2,150 400,255.60000000000002 Z"
              fill="url(#bb2_s_d_starGradientV2)" />
        <polygon points="400,139.6 410.4,150 400,160.4 389.6,150" 
                 fill="#FFFFFF" opacity="0.98"/>
    </g>
    
        
    <g id="bb2_s_d_wordmark_v2_group">
        
        <path d="M 207.0,320 
                 L 187.2,375.0 
                 L 195.73874999999998,375.0 
                 L 207.0,331.0 
                 L 218.26125000000002,375.0 
                 L 226.8,375.0 Z
                 M 195.725,353.99 
                 L 218.275,353.99 
                 L 218.275,361.415 
                 L 195.725,361.415 Z"
              fill="#FFFFFF" />
    
        
        <path d="M 289.5,332.1 
                 C 284.0,322.2 260.9,322.2 260.9,337.6 
                 C 260.9,348.6 291.15,346.4 291.15,360.15 
                 C 291.15,373.9 263.09999999999997,373.9 256.5,362.9 
                 L 264.29625,360.7 
                 C 262.0,367.3 283.45,367.3 283.45,360.15 
                 C 283.45,349.7 253.475,350.8 253.475,337.6 
                 C 253.475,323.85 280.7,323.85 289.5,332.1 Z"
              fill="#FFFFFF" />
    
        
        <path d="M 317.55,320 
                 L 357.15000000000003,320 
                 L 357.15000000000003,327.425 
                 L 341.0625,327.425 
                 L 341.0625,375.0 
                 L 333.63750000000005,375.0 
                 L 333.63750000000005,327.425 
                 L 317.55,327.425 Z"
              fill="#FFFFFF" />
    
        
        <path d="M 383.55,320 
                 L 408.85,320 
                 C 423.70000000000005,320 423.70000000000005,347.5 408.85,347.5 
                 L 390.975,347.5 
                 L 390.975,375.0 
                 L 383.55,375.0 Z
                 M 390.975,327.425 
                 L 407.75,327.425 
                 C 416.0,327.425 416.0,340.075 407.75,340.075 
                 L 390.975,340.075 Z
                 M 401.7,346.4 
                 L 422.05,375.0 
                 L 412.76875,375.0 
                 L 396.2,346.4 Z"
              fill="#FFFFFF" />
    
        
        <path d="M 472.1,320 
                 L 452.3,375.0 
                 L 460.83875,375.0 
                 L 472.1,331.0 
                 L 483.36125000000004,375.0 
                 L 491.90000000000003,375.0 Z
                 M 460.82500000000005,353.99 
                 L 483.375,353.99 
                 L 483.375,361.415 
                 L 460.82500000000005,361.415 Z"
              fill="#FFFFFF" />
    
        
            <text x="326.9" y="392.6" font-family="system-ui, -apple-system, 'Geist', 'Satoshi', sans-serif" 
                  font-size="10.175px" font-weight="600" letter-spacing="24.2px" fill="#A1A7BB" text-anchor="middle">
                AI OPERATING SYSTEM
            </text>
        
    </g>
    
    </g>
    <text x="520" y="1060" font-family="system-ui, sans-serif" font-size="16px" fill="#A1A7BB" text-anchor="middle">Stacked Centered Lockup</text>

    <rect x="1040" y="670" width="880" height="420" rx="20" fill="#0B1020" stroke="#1E293B" stroke-width="2"/>
    <g transform="translate(1080, 780)">
        
    <g id="bb2_wm_wordmark_v2_group">
        
        <path d="M 136.0,80 
                 L 103.6,170.0 
                 L 117.57249999999999,170.0 
                 L 136.0,98.0 
                 L 154.4275,170.0 
                 L 168.4,170.0 Z
                 M 117.55,135.62 
                 L 154.45,135.62 
                 L 154.45,147.77 
                 L 117.55,147.77 Z"
              fill="#FFFFFF" />
    
        
        <path d="M 271.0,99.8 
                 C 262.0,83.6 224.20000000000002,83.6 224.20000000000002,108.8 
                 C 224.20000000000002,126.80000000000001 273.70000000000005,123.2 273.70000000000005,145.7 
                 C 273.70000000000005,168.2 227.8,168.2 217.00000000000003,150.2 
                 L 229.75750000000002,146.60000000000002 
                 C 226.00000000000003,157.4 261.1,157.4 261.1,145.7 
                 C 261.1,128.6 212.05,130.4 212.05,108.8 
                 C 212.05,86.3 256.6,86.3 271.0,99.8 Z"
              fill="#FFFFFF" />
    
        
        <path d="M 316.90000000000003,80 
                 L 381.70000000000005,80 
                 L 381.70000000000005,92.15 
                 L 355.375,92.15 
                 L 355.375,170.0 
                 L 343.225,170.0 
                 L 343.225,92.15 
                 L 316.90000000000003,92.15 Z"
              fill="#FFFFFF" />
    
        
        <path d="M 424.90000000000003,80 
                 L 466.3,80 
                 C 490.6,80 490.6,125.0 466.3,125.0 
                 L 437.05,125.0 
                 L 437.05,170.0 
                 L 424.90000000000003,170.0 Z
                 M 437.05,92.15 
                 L 464.50000000000006,92.15 
                 C 478.00000000000006,92.15 478.00000000000006,112.85 464.50000000000006,112.85 
                 L 437.05,112.85 Z
                 M 454.6,123.2 
                 L 487.90000000000003,170.0 
                 L 472.71250000000003,170.0 
                 L 445.6,123.2 Z"
              fill="#FFFFFF" />
    
        
        <path d="M 569.8000000000001,80 
                 L 537.4000000000001,170.0 
                 L 551.3725000000001,170.0 
                 L 569.8000000000001,98.0 
                 L 588.2275000000001,170.0 
                 L 602.2,170.0 Z
                 M 551.35,135.62 
                 L 588.2500000000001,135.62 
                 L 588.2500000000001,147.77 
                 L 551.35,147.77 Z"
              fill="#FFFFFF" />
    
        
            <text x="332.20000000000005" y="198.8" font-family="system-ui, -apple-system, 'Geist', 'Satoshi', sans-serif" 
                  font-size="16.650000000000002px" font-weight="600" letter-spacing="39.6px" fill="#A1A7BB" text-anchor="middle">
                AI OPERATING SYSTEM
            </text>
        
    </g>
    
    </g>
    <text x="1480" y="1060" font-family="system-ui, sans-serif" font-size="16px" fill="#A1A7BB" text-anchor="middle">Proprietary Vector Wordmark (Golden Ratio Crossbars)</text>

    <!-- SECTION 3: APP ICON & FAVICON SUITE -->
    <text x="80" y="1140" font-family="system-ui, sans-serif" font-size="22px" font-weight="700" fill="#FFFFFF" letter-spacing="2px">3. APP ICON &amp; FAVICON SCALABILITY MATRIX</text>
    <g transform="translate(80, 1160)">
        <!-- App Icon -->
        <rect x="0" y="0" width="270" height="270" rx="58" ry="58" fill="url(#bb2_appIconBgV2)" stroke="#6D5DF6" stroke-width="3" stroke-opacity="0.4"/>
        
    <g id="bb2_app_variant_c_flagship_mark">
        <circle cx="135" cy="130" r="48.75" fill="url(#bb2_app_coreGlowV2)" opacity="0.95" />
        <path d="M 14.75,209.3 Q 135,159.9 255.25,209.3 Q 135,170.95 14.75,209.3 Z" 
              fill="url(#bb2_app_horizonGradientV2)" />
        <path d="M 94.69999999999999,89.69999999999999 Q 135,130 130.125,125.125 Q 135,130 94.69999999999999,89.69999999999999 Z
                 M 175.3,89.69999999999999 Q 135,130 139.875,125.125 Q 135,130 175.3,89.69999999999999 Z
                 M 94.69999999999999,170.3 Q 135,130 130.125,134.875 Q 135,130 94.69999999999999,170.3 Z
                 M 175.3,170.3 Q 135,130 139.875,134.875 Q 135,130 175.3,170.3 Z"
              fill="url(#bb2_app_starGradientV2)" opacity="0.75" />
        <path d="M 51.8,130 Q 135,121.225 135,130 Q 135,138.775 51.8,130 Z
                 M 218.2,130 Q 135,121.225 135,130 Q 135,138.775 218.2,130 Z"
              fill="url(#bb2_app_starGradientV2)" />
        <path d="M 135,33.8 Q 124.275,130 135,130 Q 145.725,130 135,33.8 Z
                 M 135,215.8 Q 124.275,130 135,130 Q 145.725,130 135,215.8 Z"
              fill="url(#bb2_app_starGradientV2)" />
        <polygon points="135,121.55 143.45,130 135,138.45 126.55,130" 
                 fill="#FFFFFF" opacity="0.98"/>
    </g>
    
        <text x="135" y="300" font-family="system-ui, sans-serif" font-size="14px" fill="#A1A7BB" text-anchor="middle">1024×1024 App Icon</text>

        <!-- 64x64 -->
        <rect x="340" y="80" width="110" height="110" rx="20" fill="#0B1020" stroke="#1E293B"/>
        
    <g id="bb2_fav64_variant_c_flagship_mark">
        <circle cx="395" cy="134" r="19.5" fill="url(#bb2_fav64_coreGlowV2)" opacity="0.95" />
        <path d="M 346.9,165.72 Q 395,145.96 443.1,165.72 Q 395,150.38 346.9,165.72 Z" 
              fill="url(#bb2_fav64_horizonGradientV2)" />
        <path d="M 378.88,117.88 Q 395,134 393.05,132.05 Q 395,134 378.88,117.88 Z
                 M 411.12,117.88 Q 395,134 396.95,132.05 Q 395,134 411.12,117.88 Z
                 M 378.88,150.12 Q 395,134 393.05,135.95 Q 395,134 378.88,150.12 Z
                 M 411.12,150.12 Q 395,134 396.95,135.95 Q 395,134 411.12,150.12 Z"
              fill="url(#bb2_fav64_starGradientV2)" opacity="0.75" />
        <path d="M 361.72,134 Q 395,130.49 395,134 Q 395,137.51 361.72,134 Z
                 M 428.28,134 Q 395,130.49 395,134 Q 395,137.51 428.28,134 Z"
              fill="url(#bb2_fav64_starGradientV2)" />
        <path d="M 395,95.52 Q 390.71,134 395,134 Q 399.29,134 395,95.52 Z
                 M 395,168.32 Q 390.71,134 395,134 Q 399.29,134 395,168.32 Z"
              fill="url(#bb2_fav64_starGradientV2)" />
        <polygon points="395,130.62 398.38,134 395,137.38 391.62,134" 
                 fill="#FFFFFF" opacity="0.98"/>
    </g>
    
        <text x="395" y="215" font-family="system-ui, sans-serif" font-size="14px" fill="#A1A7BB" text-anchor="middle">64×64 Favicon</text>

        <!-- 48x48 -->
        <rect x="510" y="90" width="90" height="90" rx="16" fill="#0B1020" stroke="#1E293B"/>
        
    <g id="bb2_fav48_variant_c_flagship_mark">
        <circle cx="555" cy="134" r="15.75" fill="url(#bb2_fav48_coreGlowV2)" opacity="0.95" />
        <path d="M 516.15,159.62 Q 555,143.66 593.85,159.62 Q 555,147.23 516.15,159.62 Z" 
              fill="url(#bb2_fav48_horizonGradientV2)" />
        <path d="M 541.98,120.98 Q 555,134 553.425,132.425 Q 555,134 541.98,120.98 Z
                 M 568.02,120.98 Q 555,134 556.575,132.425 Q 555,134 568.02,120.98 Z
                 M 541.98,147.02 Q 555,134 553.425,135.575 Q 555,134 541.98,147.02 Z
                 M 568.02,147.02 Q 555,134 556.575,135.575 Q 555,134 568.02,147.02 Z"
              fill="url(#bb2_fav48_starGradientV2)" opacity="0.75" />
        <path d="M 528.12,134 Q 555,131.165 555,134 Q 555,136.835 528.12,134 Z
                 M 581.88,134 Q 555,131.165 555,134 Q 555,136.835 581.88,134 Z"
              fill="url(#bb2_fav48_starGradientV2)" />
        <path d="M 555,102.92 Q 551.535,134 555,134 Q 558.465,134 555,102.92 Z
                 M 555,161.72 Q 551.535,134 555,134 Q 558.465,134 555,161.72 Z"
              fill="url(#bb2_fav48_starGradientV2)" />
        <polygon points="555,131.27 557.73,134 555,136.73 552.27,134" 
                 fill="#FFFFFF" opacity="0.98"/>
    </g>
    
        <text x="555" y="205" font-family="system-ui, sans-serif" font-size="14px" fill="#A1A7BB" text-anchor="middle">48×48</text>

        <!-- 32x32 -->
        <rect x="650" y="100" width="70" height="70" rx="12" fill="#0B1020" stroke="#1E293B"/>
        
    <g id="bb2_fav32_variant_c_flagship_mark">
        <circle cx="685" cy="134" r="12.0" fill="url(#bb2_fav32_coreGlowV2)" opacity="0.95" />
        <path d="M 655.4,153.52 Q 685,141.36 714.6,153.52 Q 685,144.08 655.4,153.52 Z" 
              fill="url(#bb2_fav32_horizonGradientV2)" />
        <path d="M 675.08,124.08 Q 685,134 683.8,132.8 Q 685,134 675.08,124.08 Z
                 M 694.92,124.08 Q 685,134 686.2,132.8 Q 685,134 694.92,124.08 Z
                 M 675.08,143.92 Q 685,134 683.8,135.2 Q 685,134 675.08,143.92 Z
                 M 694.92,143.92 Q 685,134 686.2,135.2 Q 685,134 694.92,143.92 Z"
              fill="url(#bb2_fav32_starGradientV2)" opacity="0.75" />
        <path d="M 664.52,134 Q 685,131.84 685,134 Q 685,136.16 664.52,134 Z
                 M 705.48,134 Q 685,131.84 685,134 Q 685,136.16 705.48,134 Z"
              fill="url(#bb2_fav32_starGradientV2)" />
        <path d="M 685,110.32 Q 682.36,134 685,134 Q 687.64,134 685,110.32 Z
                 M 685,155.12 Q 682.36,134 685,134 Q 687.64,134 685,155.12 Z"
              fill="url(#bb2_fav32_starGradientV2)" />
        <polygon points="685,131.92 687.08,134 685,136.08 682.92,134" 
                 fill="#FFFFFF" opacity="0.98"/>
    </g>
    
        <text x="685" y="195" font-family="system-ui, sans-serif" font-size="14px" fill="#A1A7BB" text-anchor="middle">32×32</text>

        <!-- 16x16 -->
        <rect x="770" y="110" width="50" height="50" rx="8" fill="#0B1020" stroke="#1E293B"/>
        
    <g id="bb2_fav16_variant_c_flagship_mark">
        <circle cx="795" cy="134" r="8.25" fill="url(#bb2_fav16_coreGlowV2)" opacity="0.95" />
        <path d="M 774.65,147.42 Q 795,139.06 815.35,147.42 Q 795,140.93 774.65,147.42 Z" 
              fill="url(#bb2_fav16_horizonGradientV2)" />
        <path d="M 788.18,127.18 Q 795,134 794.175,133.175 Q 795,134 788.18,127.18 Z
                 M 801.82,127.18 Q 795,134 795.825,133.175 Q 795,134 801.82,127.18 Z
                 M 788.18,140.82 Q 795,134 794.175,134.825 Q 795,134 788.18,140.82 Z
                 M 801.82,140.82 Q 795,134 795.825,134.825 Q 795,134 801.82,140.82 Z"
              fill="url(#bb2_fav16_starGradientV2)" opacity="0.75" />
        <path d="M 780.92,134 Q 795,132.515 795,134 Q 795,135.485 780.92,134 Z
                 M 809.08,134 Q 795,132.515 795,134 Q 795,135.485 809.08,134 Z"
              fill="url(#bb2_fav16_starGradientV2)" />
        <path d="M 795,117.72 Q 793.185,134 795,134 Q 796.815,134 795,117.72 Z
                 M 795,148.52 Q 793.185,134 795,134 Q 796.815,134 795,148.52 Z"
              fill="url(#bb2_fav16_starGradientV2)" />
        <polygon points="795,132.57 796.43,134 795,135.43 793.57,134" 
                 fill="#FFFFFF" opacity="0.98"/>
    </g>
    
        <text x="795" y="185" font-family="system-ui, sans-serif" font-size="14px" fill="#A1A7BB" text-anchor="middle">16×16 Micro</text>
    </g>

    <!-- SECTION 4: MONOCHROME & HIGH CONTRAST -->
    <text x="1040" y="1140" font-family="system-ui, sans-serif" font-size="22px" font-weight="700" fill="#FFFFFF" letter-spacing="2px">4. MONOCHROME &amp; EMBOSSED PERFORMANCE</text>
    <g transform="translate(1040, 1160)">
        <rect x="0" y="0" width="200" height="140" rx="14" fill="#F8FAFC"/>
        
    <g id="bb2_m1_variant_c_flagship_mark">
        
        <path d="M 40.8,109.03999999999999 Q 100,84.72 159.2,109.03999999999999 Q 100,90.16 40.8,109.03999999999999 Z" 
              fill="#090D16" />
        <path d="M 80.16,50.16 Q 100,70 97.6,67.6 Q 100,70 80.16,50.16 Z
                 M 119.84,50.16 Q 100,70 102.4,67.6 Q 100,70 119.84,50.16 Z
                 M 80.16,89.84 Q 100,70 97.6,72.4 Q 100,70 80.16,89.84 Z
                 M 119.84,89.84 Q 100,70 102.4,72.4 Q 100,70 119.84,89.84 Z"
              fill="#090D16" opacity="0.75" />
        <path d="M 59.04,70 Q 100,65.68 100,70 Q 100,74.32 59.04,70 Z
                 M 140.96,70 Q 100,65.68 100,70 Q 100,74.32 140.96,70 Z"
              fill="#090D16" />
        <path d="M 100,22.64 Q 94.72,70 100,70 Q 105.28,70 100,22.64 Z
                 M 100,112.24000000000001 Q 94.72,70 100,70 Q 105.28,70 100,112.24000000000001 Z"
              fill="#090D16" />
        <polygon points="100,65.84 104.16,70 100,74.16 95.84,70" 
                 fill="#090D16" opacity="0.98"/>
    </g>
    
        <text x="100" y="165" font-family="system-ui, sans-serif" font-size="13px" fill="#A1A7BB" text-anchor="middle">Black on Light</text>

        <rect x="225" y="0" width="200" height="140" rx="14" fill="#0B1020"/>
        
    <g id="bb2_m2_variant_c_flagship_mark">
        
        <path d="M 265.8,109.03999999999999 Q 325,84.72 384.2,109.03999999999999 Q 325,90.16 265.8,109.03999999999999 Z" 
              fill="#FFFFFF" />
        <path d="M 305.16,50.16 Q 325,70 322.6,67.6 Q 325,70 305.16,50.16 Z
                 M 344.84,50.16 Q 325,70 327.4,67.6 Q 325,70 344.84,50.16 Z
                 M 305.16,89.84 Q 325,70 322.6,72.4 Q 325,70 305.16,89.84 Z
                 M 344.84,89.84 Q 325,70 327.4,72.4 Q 325,70 344.84,89.84 Z"
              fill="#FFFFFF" opacity="0.75" />
        <path d="M 284.04,70 Q 325,65.68 325,70 Q 325,74.32 284.04,70 Z
                 M 365.96,70 Q 325,65.68 325,70 Q 325,74.32 365.96,70 Z"
              fill="#FFFFFF" />
        <path d="M 325,22.64 Q 319.72,70 325,70 Q 330.28,70 325,22.64 Z
                 M 325,112.24000000000001 Q 319.72,70 325,70 Q 330.28,70 325,112.24000000000001 Z"
              fill="#FFFFFF" />
        <polygon points="325,65.84 329.16,70 325,74.16 320.84,70" 
                 fill="#FFFFFF" opacity="0.98"/>
    </g>
    
        <text x="325" y="165" font-family="system-ui, sans-serif" font-size="13px" fill="#A1A7BB" text-anchor="middle">White on Dark</text>

        <rect x="450" y="0" width="200" height="140" rx="14" fill="#FFFFFF"/>
        
    <g id="bb2_m3_variant_c_flagship_mark">
        
        <path d="M 490.8,109.03999999999999 Q 550,84.72 609.2,109.03999999999999 Q 550,90.16 490.8,109.03999999999999 Z" 
              fill="#090D16" />
        <path d="M 530.16,50.16 Q 550,70 547.6,67.6 Q 550,70 530.16,50.16 Z
                 M 569.84,50.16 Q 550,70 552.4,67.6 Q 550,70 569.84,50.16 Z
                 M 530.16,89.84 Q 550,70 547.6,72.4 Q 550,70 530.16,89.84 Z
                 M 569.84,89.84 Q 550,70 552.4,72.4 Q 550,70 569.84,89.84 Z"
              fill="#090D16" opacity="0.75" />
        <path d="M 509.04,70 Q 550,65.68 550,70 Q 550,74.32 509.04,70 Z
                 M 590.96,70 Q 550,65.68 550,70 Q 550,74.32 590.96,70 Z"
              fill="#090D16" />
        <path d="M 550,22.64 Q 544.72,70 550,70 Q 555.28,70 550,22.64 Z
                 M 550,112.24000000000001 Q 544.72,70 550,70 Q 555.28,70 550,112.24000000000001 Z"
              fill="#090D16" />
        <polygon points="550,65.84 554.16,70 550,74.16 545.84,70" 
                 fill="#090D16" opacity="0.98"/>
    </g>
    
        <text x="550" y="165" font-family="system-ui, sans-serif" font-size="13px" fill="#A1A7BB" text-anchor="middle">Pure Black</text>

        <rect x="675" y="0" width="200" height="140" rx="14" fill="#000000"/>
        
    <g id="bb2_m4_variant_c_flagship_mark">
        
        <path d="M 715.8,109.03999999999999 Q 775,84.72 834.2,109.03999999999999 Q 775,90.16 715.8,109.03999999999999 Z" 
              fill="#FFFFFF" />
        <path d="M 755.16,50.16 Q 775,70 772.6,67.6 Q 775,70 755.16,50.16 Z
                 M 794.84,50.16 Q 775,70 777.4,67.6 Q 775,70 794.84,50.16 Z
                 M 755.16,89.84 Q 775,70 772.6,72.4 Q 775,70 755.16,89.84 Z
                 M 794.84,89.84 Q 775,70 777.4,72.4 Q 775,70 794.84,89.84 Z"
              fill="#FFFFFF" opacity="0.75" />
        <path d="M 734.04,70 Q 775,65.68 775,70 Q 775,74.32 734.04,70 Z
                 M 815.96,70 Q 775,65.68 775,70 Q 775,74.32 815.96,70 Z"
              fill="#FFFFFF" />
        <path d="M 775,22.64 Q 769.72,70 775,70 Q 780.28,70 775,22.64 Z
                 M 775,112.24000000000001 Q 769.72,70 775,70 Q 780.28,70 775,112.24000000000001 Z"
              fill="#FFFFFF" />
        <polygon points="775,65.84 779.16,70 775,74.16 770.84,70" 
                 fill="#FFFFFF" opacity="0.98"/>
    </g>
    
        <text x="775" y="165" font-family="system-ui, sans-serif" font-size="13px" fill="#A1A7BB" text-anchor="middle">Pure White</text>
    </g>

    <!-- SECTION 5: COLOR PALETTE & TYPOGRAPHY SPECS -->
    <text x="80" y="1530" font-family="system-ui, sans-serif" font-size="22px" font-weight="700" fill="#FFFFFF" letter-spacing="2px">5. REFINED COLOR SYSTEM &amp; TYPOGRAPHY SPECS</text>
    <g transform="translate(80, 1560)">
        <!-- Swatches -->
        <rect x="0" y="0" width="160" height="100" rx="12" fill="#0B1020" stroke="#1E293B" stroke-width="2"/>
        <text x="80" y="125" font-family="system-ui, sans-serif" font-size="13px" font-weight="600" fill="#FFFFFF" text-anchor="middle">Deep Space Navy</text>
        <text x="80" y="145" font-family="monospace" font-size="12px" fill="#A1A7BB" text-anchor="middle">#0B1020</text>

        <rect x="180" y="0" width="160" height="100" rx="12" fill="#6D5DF6"/>
        <text x="260" y="125" font-family="system-ui, sans-serif" font-size="13px" font-weight="600" fill="#FFFFFF" text-anchor="middle">Cosmic Purple</text>
        <text x="260" y="145" font-family="monospace" font-size="12px" fill="#A1A7BB" text-anchor="middle">#6D5DF6</text>

        <rect x="360" y="0" width="160" height="100" rx="12" fill="#FFC857"/>
        <text x="440" y="125" font-family="system-ui, sans-serif" font-size="13px" font-weight="600" fill="#FFFFFF" text-anchor="middle">Warm Starlight</text>
        <text x="440" y="145" font-family="monospace" font-size="12px" fill="#A1A7BB" text-anchor="middle">#FFC857</text>

        <rect x="540" y="0" width="160" height="100" rx="12" fill="#4F46E5"/>
        <text x="620" y="125" font-family="system-ui, sans-serif" font-size="13px" font-weight="600" fill="#FFFFFF" text-anchor="middle">Indigo Glow</text>
        <text x="620" y="145" font-family="monospace" font-size="12px" fill="#A1A7BB" text-anchor="middle">#4F46E5</text>

        <rect x="720" y="0" width="160" height="100" rx="12" fill="#FFFFFF"/>
        <text x="800" y="125" font-family="system-ui, sans-serif" font-size="13px" font-weight="600" fill="#FFFFFF" text-anchor="middle">Starlight White</text>
        <text x="800" y="145" font-family="monospace" font-size="12px" fill="#A1A7BB" text-anchor="middle">#FFFFFF</text>
    </g>

    <g transform="translate(1040, 1560)">
        <rect x="0" y="0" width="880" height="160" rx="16" fill="#0B1020" stroke="#1E293B" stroke-width="2"/>
        <text x="40" y="105" font-family="'Geist', 'Satoshi', sans-serif" font-size="90px" font-weight="700" fill="#FFFFFF">Aa</text>
        <text x="210" y="55" font-family="system-ui, sans-serif" font-size="20px" font-weight="700" fill="#FFFFFF">ASTRA Proprietary Typeface</text>
        <text x="210" y="82" font-family="system-ui, sans-serif" font-size="14px" fill="#A1A7BB">Apex Angle 60° | Golden Crossbar 61.8% | Wide Tracking +44%</text>
        <text x="500" y="50" font-family="system-ui, sans-serif" font-size="15px" fill="#FFFFFF">ABCDEFGHIJKLMNOPQRSTUVWXYZ</text>
        <text x="500" y="80" font-family="system-ui, sans-serif" font-size="15px" fill="#FFFFFF">abcdefghijklmnopqrstuvwxyz</text>
        <text x="500" y="110" font-family="system-ui, sans-serif" font-size="15px" fill="#FFFFFF">0123456789</text>
    </g>

    <!-- SECTION 6: EXECUTIVE BRAND SUMMARY -->
    <rect x="80" y="1780" width="1840" height="280" rx="20" fill="#0B1020" stroke="#1E293B" stroke-width="2"/>
    <text x="120" y="1835" font-family="system-ui, sans-serif" font-size="20px" font-weight="700" fill="#FFFFFF" letter-spacing="1px">EXECUTIVE BRAND RATIONALE &amp; HIDDEN INTELLIGENCE</text>
    <text x="120" y="1875" font-family="system-ui, sans-serif" font-size="14px" fill="#A1A7BB">• Hidden Chevron 'A': The negative space between the horizon arc apex and the lower vertical flare of the star forms a subtle 'A' letterform.</text>
    <text x="120" y="1905" font-family="system-ui, sans-serif" font-size="14px" fill="#A1A7BB">• Horizon Rise Concept: Symbolizes a continuous upward trajectory, direction, clarity, and the boundless future of agentic AI software.</text>
    <text x="120" y="1935" font-family="system-ui, sans-serif" font-size="14px" fill="#A1A7BB">• 16×16 Scalability: Performs with 100% silhouette fidelity without relying on gradients, drop shadows, or decorative complexity.</text>
    <text x="120" y="1965" font-family="system-ui, sans-serif" font-size="14px" fill="#A1A7BB">• Longevity: Engineered to feel timeless, confident, and authoritative for enterprise software deployment up to 2036 and beyond.</text>
</svg>