<svg xmlns="http://www.w3.org/2000/svg" viewBox="0 0 800 300" width="100%" height="100%">
    <rect width="100%" height="100%" fill="#F8FAFC"/>
    
    <g id="wm_l_wordmark_group">
        
        <path d="M 182.0,95 L 152.25,180.0 L 164.8725,180.0 L 182.0,113.7 L 199.1275,180.0 L 211.75,180.0 Z
                 M 165.0,149.4 L 199.0,149.4 L 199.0,160.875 L 165.0,160.875 Z"
              fill="#090D16" />
    
        
        <path d="M 305.25,113.7 C 296.75,99.25 262.75,99.25 262.75,122.2 C 262.75,139.2 307.8,135.8 307.8,156.2 C 307.8,178.3 267.0,178.3 256.8,161.3 L 268.27500000000003,157.9 C 265.3,168.1 295.9,168.1 295.9,156.2 C 295.9,140.9 250.85,142.6 250.85,122.2 C 250.85,101.8 292.5,101.8 305.25,113.7 Z"
              fill="#090D16" />
    
        
        <path d="M 347.75,95 L 408.95,95 L 408.95,106.475 L 384.08750000000003,106.475 L 384.08750000000003,180.0 L 372.6125,180.0 L 372.6125,106.475 L 347.75,106.475 Z"
              fill="#090D16" />
    
        
        <path d="M 447.2,95 L 485.45,95 C 508.4,95 508.4,137.5 485.45,137.5 L 458.675,137.5 L 458.675,180.0 L 447.2,180.0 Z
                 M 458.675,106.475 L 483.75,106.475 C 496.5,106.475 496.5,126.025 483.75,126.025 L 458.675,126.025 Z
                 M 474.4,135.8 L 505.0,180.0 L 490.0825,180.0 L 465.9,135.8 Z"
              fill="#090D16" />
    
        
        <path d="M 580.65,95 L 550.9,180.0 L 563.5224999999999,180.0 L 580.65,113.7 L 597.7775,180.0 L 610.4,180.0 Z
                 M 563.65,149.4 L 597.65,149.4 L 597.65,160.875 L 563.65,160.875 Z"
              fill="#090D16" />
    
        
            <text x="362.2" y="205.5" font-family="system-ui, -apple-system, 'Geist', 'Satoshi', 'Inter', sans-serif" 
                  font-size="17.0px" font-weight="600" letter-spacing="35.699999999999996px" fill="#475569" text-anchor="middle">
                AI WORKSPACE
            </text>
        
    </g>
    
</svg>